<svg width="250px" height="70px" version="1.1" viewBox="0.0 0.0 64.0 64.0" fill="none" stroke="none" stroke-linecap="square" stroke-miterlimit="10"
     xmlns:xlink="http://www.w3.org/1999/xlink" xmlns="http://www.w3.org/2000/svg">
    <clipPath id="p.0">
        <path d="m0 0l64.0 0l0 64.0l-64.0 0l0 -64.0z" clip-rule="nonzero"/>
    </clipPath>
    <g clip-path="url(#p.0)">
        <path fill="#000000" fill-opacity="0.0" d="m0 0l64.0 0l0 64.0l-64.0 0z" fill-rule="evenodd"/>
        <path fill="#674ea7"
              d="m21.75658 3.553642c-0.6962261 0 -1.369463 0.14239717 -2.0197124 0.4271927c-0.6502495 0.27909875 -1.29393 0.76609874 -1.9310436 1.4609993c-0.63711166 0.68920374 -1.188839 1.5521331 -1.65518 2.5887876c-0.4663391 1.0309582 -0.8440094 2.363799 -1.133009 3.9985237c-0.28899956 1.6290293 -0.43349934 3.4688053 -0.43349934 5.51933c0 2.904911 0.34920788 5.194664 1.0476236 6.869259c0.7006054 1.6745949 1.8489399 3.0757866 3.4450073 4.203575c0.052545547 0.034175873 0.24302101 0.12530899 0.5714302 0.27340508c0.3284092 0.14239502 0.64805984 0.31327248 0.95895386 0.51263046c0.31308174 0.19365883 0.64149094 0.43288803 0.9852257 0.7176838c0.34592438 0.2790985 0.62397575 0.64078903 0.83415794 1.0850697c0.21018219 0.44428062 0.31527328 0.9312782 0.31527328 1.4609985c0 0.8031235 -0.123701096 1.4410629 -0.3711033 1.9138222c-0.24521065 0.4670639 -0.528738 0.70059586 -0.8505783 0.70059586c-0.26272583 0 -0.4783821 -0.113918304 -0.646965 -0.3417511c-0.16639328 -0.23353577 -0.28462029 -0.51548386 -0.35468102 -0.84584427c-0.067871094 -0.33605957 -0.12698555 -0.66926956 -0.17734146 -0.99963c-0.048166275 -0.33605957 -0.1116581 -0.61800766 -0.19047546 -0.84584045c-0.078819275 -0.23353577 -0.18719292 -0.35029984 -0.32512474 -0.35029984c-0.5451584 0 -1.3727493 0.034175873 -2.482771 0.10252762c-1.1100197 0.068351746 -1.9376106 0.10252762 -2.482769 0.10252762c-0.09195423 0 -0.15763569 -0.017089844 -0.19704533 -0.051265717c-0.13136292 0.051265717 -0.19704437 0.2392273 -0.19704437 0.5638962c0.059113503 1.8454704 0.21784496 3.4688034 0.47619247 4.869995c0.2605381 1.4011917 0.58566284 2.5517654 0.97537327 3.4517174c0.39190102 0.8942566 0.8746624 1.6375694 1.4482822 2.2299461c0.5758114 0.58667755 1.1724186 1.0110207 1.7898273 1.2730331c0.61740875 0.26771164 1.3136349 0.44428253 2.0886784 0.5297203c0.50575066 -0.068351746 0.9731846 -0.16802597 1.4023056 -0.29903412c0.43131065 -0.12530899 0.90312386 -0.33321 1.4154415 -0.623703c0.51231766 -0.2904892 0.96990013 -0.64933395 1.3727474 -1.0765266c0.40503883 -0.4271927 0.80460167 -0.99963 1.1986923 -1.7173119c0.39409065 -0.7176857 0.72249985 -1.5378952 0.9852257 -2.4606323c0.26272774 -0.9227333 0.47400475 -2.0505219 0.6338291 -3.3833656c0.16201591 -1.33284 0.24302292 -2.8109283 0.24302292 -4.4342594c0 -2.6827698 -0.27586365 -4.912716 -0.82759094 -6.6898384c-0.59770393 -1.9138222 -1.6157703 -3.4602604 -3.0541992 -4.6393127c-0.27586365 -0.22213936 -1.1297264 -0.80312157 -2.5615883 -1.7429466c-0.059114456 -0.0512619 -0.21018219 -0.15663528 -0.4532032 -0.31612206c-0.24302292 -0.1651802 -0.4466362 -0.31612206 -0.61084175 -0.45282364c-0.16420364 -0.13670158 -0.32074547 -0.35884285 -0.46962357 -0.6664219c-0.14668846 -0.30757713 -0.22003365 -0.64933205 -0.22003365 -1.0252619c0 -0.3075781 0.05583 -0.57528496 0.1674881 -0.80312157c0.11166 -0.23353195 0.24411774 -0.40440845 0.3973751 -0.5126314c0.155447 -0.11391735 0.29009438 -0.19650936 0.4039421 -0.24777222c0.11603737 -0.051262856 0.20032883 -0.07689476 0.25287437 -0.07689476c0.19047737 0 0.34263992 0.059806824 0.45648766 0.17942142c0.11603737 0.11961365 0.19157219 0.27340317 0.22660255 0.4613676c0.03722 0.1879654 0.07662773 0.3844738 0.118227005 0.5895262c0.043787003 0.20505238 0.086481094 0.40156078 0.12808037 0.5895262c0.043787003 0.18796444 0.12917328 0.34175396 0.25615883 0.46136856c0.12917328 0.11961365 0.298851 0.17942047 0.5090332 0.17942047c1.6748829 0 3.185564 -0.068351746 4.5320396 -0.20505333l0.35468102 -0.9227352c-0.026273727 -1.0081749 -0.07444 -1.856864 -0.14450073 -2.5460691c-0.067871094 -0.69489956 -0.18938065 -1.4011917 -0.36453247 -2.1188755c-0.17296219 -0.7176838 -0.3535862 -1.3442335 -0.54187393 -1.8796482c-0.1860981 -0.541111 -0.47947693 -1.3328409 -0.8801365 -2.3751912c-1.0968838 -1.7771215 -2.5681553 -2.6656826 -4.4138126 -2.6656826z"
              fill-rule="evenodd"/>
        <path fill="#674ea7"
              d="m30.81327 4.61308c-0.03776741 0 -0.0714283 0.0028481483 -0.10098457 0.008543968c-0.059114456 0.005695343 -0.13464737 0.014239311 -0.22660255 0.025631428c-0.091955185 0.005695343 -0.1674881 0.025631428 -0.22660255 0.059806824c-0.05911255 0.034175396 -0.12041664 0.0825901 -0.18390846 0.14524555c-0.061302185 0.056958675 -0.10728073 0.1423974 -0.13793182 0.2563157c-0.028461456 0.10822153 -0.042692184 0.23922777 -0.042692184 0.3930173l0 38.03724c0 0.30757904 0.17733955 0.46136856 0.53202057 0.46136856c0.38752365 0 0.9556694 -0.008544922 1.704443 -0.02563095c0.74877167 -0.017089844 1.3169174 -0.02563095 1.7044411 -0.02563095l0.9261093 0c0.105091095 0 0.17734146 -0.1879654 0.2167511 -0.5638962c-0.013134003 -1.0252609 -0.019702911 -2.54607 -0.019702911 -4.562416l0 -4.511158c0 -2.8707333 0.039409637 -7.0401344 0.1182251 -12.508202c0.06568146 0.7176838 0.1674881 1.8283844 0.30541992 3.3321037c0.13793182 1.5037174 0.25725555 2.8451023 0.35796738 4.0241547c0.10290146 1.1790524 0.19704437 2.315384 0.28242874 3.4089966l0.94581985 10.713993c0.072250366 0.5809822 0.32183838 0.8714752 0.74877167 0.8714752l3.4876976 0c0.5385933 0 0.84072876 -0.2392273 0.9064102 -0.7176857c0.14450073 -1.5549812 0.40722656 -4.6393127 0.7881813 -9.252991c0.38095093 -4.6136837 0.7027931 -8.159382 0.96551895 -10.6371l0 0c-0.0065689087 0.2392273 -0.0054740906 0.57813454 0.0032844543 1.0167179c0.010948181 0.43288994 0.016422272 0.7262287 0.016422272 0.88001823l0 1.7942085c0 0.88856125 -0.0032844543 2.380886 -0.009853363 4.47698c-0.0065689087 2.090395 -0.009853363 3.8789082 -0.009853363 5.3655415c0 4.0839615 0.15763855 6.442066 0.47290802 7.0743103l4.492634 0c0.13793182 0 0.2539673 -0.13670349 0.3481102 -0.41010666c0.096336365 -0.27340317 0.1674881 -0.66072464 0.21346664 -1.1619644c0.045978546 -0.5069351 0.07991409 -1.0451965 0.10180664 -1.614788c0.024085999 -0.57528687 0.033935547 -1.2160759 0.029556274 -1.9223671c-0.0021896362 -0.71198654 -0.0065689087 -1.3584709 -0.013134003 -1.9394531c-0.0065689087 -0.5809822 -0.016422272 -1.190445 -0.02956009 -1.8283844c-0.013134003 -0.6436386 -0.019702911 -1.1192474 -0.019702911 -1.4268265c-0.013137817 -1.9309101 -0.09195328 -11.17536 -0.23645401 -27.733349c0 -0.9056487 -0.09195328 -1.3841047 -0.27586365 -1.4353676l-1.4581337 0c-0.7027931 0 -1.7405663 0.025631428 -3.1133156 0.07689476c-1.3727455 0.051262856 -2.4105186 0.07689476 -3.1133118 0.07689476c-0.026275635 0 -0.06568146 -0.017087936 -0.11822891 -0.051263332c-0.05254364 -0.034175396 -0.078819275 -0.051263332 -0.078819275 -0.051263332l-1.5763588 20.710304l-0.74877167 -10.201363c-0.3415451 -4.511155 -0.59113693 -7.9116087 -0.74877167 -10.201362c-0.40722656 0 -0.9939842 -0.06835079 -1.760273 -0.20505238c-0.7640953 -0.13670206 -2.0821114 -0.20505285 -3.9540405 -0.20505285l-1.1625652 0c-0.026273727 0 -0.085386276 -0.0028481483 -0.17734146 -0.008543491c-0.04597664 -0.00569582 -0.08784866 -0.008543968 -0.12561607 -0.008543968z"
              fill-rule="evenodd"/>
        <path fill="#674ea7"
              d="m15.129728 48.166683c-0.38336372 0 -0.8575554 0.14787292 -1.4225721 0.44361115c-0.56501675 0.2944069 -0.9807005 0.6174545 -1.2470493 0.9691429c-0.08246708 0.10657501 -0.15824795 0.2744255 -0.22734451 0.5035553c-0.06798077 0.2291336 -0.10196972 0.4462738 -0.10196972 0.6514282c0 0.20381927 0.1231451 0.48223877 0.3694334 0.8352623c0.2474041 0.35168839 0.51988316 0.6807327 0.8174362 0.9871292c0.29755306 0.30639648 0.5694752 0.631443 0.8157644 0.9751396c0.2462883 0.3436966 0.3694334 0.6261139 0.3694334 0.8472519c0 0.3436966 -0.18666744 0.663414 -0.5600014 0.9591522c-0.372221 0.2944069 -0.79793453 0.44161224 -1.2771387 0.44161224c-0.23291588 0 -0.45413017 -0.061279297 -0.6636448 -0.18383789c-0.20839882 -0.12389374 -0.37444878 -0.25510788 -0.49815083 -0.39365387c-0.32095623 -0.3929863 -0.53659916 -0.58948135 -0.64692783 -0.58948135c-0.122587204 0 -0.1838808 0.122558594 -0.1838808 0.36767578c0 0.36101532 0.21229935 0.7440109 0.6368971 1.1489868c0.4245987 0.4049759 0.9634266 0.60746384 1.6164837 0.60746384c0.654171 0 1.2342329 -0.22713089 1.7401857 -0.6813965c0.5070658 -0.4542694 0.76059914 -1.0171051 0.76059914 -1.6885109c0 -0.3436966 -0.124816895 -0.72602844 -0.37444878 -1.1469879c-0.24963188 -0.42229462 -0.52879715 -0.79263306 -0.8374958 -1.1110191c-0.8001623 -0.8272705 -1.200243 -1.3308258 -1.200243 -1.5106697c0 -0.335701 0.39339447 -0.6833954 1.1801834 -1.0430794c0.22622967 -0.1065712 0.4847784 -0.19849014 0.7756443 -0.27575684c0.29086685 -0.07859421 0.5081816 -0.14253998 0.6519432 -0.19182968c0.14376163 -0.049289703 0.21564198 -0.11456299 0.21564198 -0.19582748c0 -0.1718483 -0.06853676 -0.335701 -0.20561218 -0.4915657c-0.13707542 -0.1558609 -0.30479717 -0.23379517 -0.5031662 -0.23379517z"
              fill-rule="evenodd"/>
        <path fill="#674ea7"
              d="m17.851944 47.283466c-0.16493607 0 -0.24740219 0.1598587 -0.24740219 0.4795761c0 0.77664566 -0.17775154 2.2293663 -0.53325653 4.3581543c-0.08915329 0.5808182 -0.30479622 1.6572037 -0.6469269 3.2291489c-0.07578087 0.35168839 -0.11367226 0.5908127 -0.11367226 0.71736526c0 0.1265564 0.06853676 0.2824211 0.20561218 0.46759033c0.13707542 0.18383789 0.24684715 0.27575684 0.3293152 0.27575684c0.082466125 0 0.2022686 -0.13521576 0.3594036 -0.40564346c0.08915329 -0.13854599 0.16437721 -0.26709747 0.22567177 -0.38565826c0.061294556 -0.119895935 0.15546417 -0.3024025 0.28250885 -0.5475197c0.12704468 -0.24511337 0.21619987 -0.414299 0.26746368 -0.5075493c0.05126381 -0.09458542 0.20171356 -0.371006 0.45134544 -0.8292694c0.24963188 -0.45959473 0.49090767 -0.87323 0.72382355 -1.2409058c0.18499565 -0.2864113 0.3426876 -0.48690414 0.47307587 -0.60146713c0.13038826 -0.1145668 0.23960304 -0.1718483 0.32764244 -0.1718483c0.0891552 0 0.16437912 0.049289703 0.22567368 0.14786911c0.062408447 0.09724808 0.09361076 0.21980667 0.09361076 0.36767578c0 0.442276 -0.18165207 1.2975197 -0.5449562 2.5657349c-0.16382217 0.580822 -0.24573135 0.99445343 -0.24573135 1.2409058c0 0.24511719 0.07522392 0.36767578 0.22567177 0.36767578c0.37667847 0 0.77731514 -0.92518616 1.2019138 -2.7755508c0.17050934 -0.7366829 0.2557621 -1.2888641 0.2557621 -1.6565399c0 -0.3690071 -0.11812973 -0.73735046 -0.3543892 -1.1050224c-0.23625946 -0.36901093 -0.44298553 -0.5535126 -0.62018013 -0.5535126c-0.32875824 0 -0.7243805 0.3297081 -1.1868706 0.9891281c-0.46248817 0.6594162 -1.0358639 1.729805 -1.7201252 3.2111626c0.35550308 -1.2775383 0.6446991 -2.556408 0.8675842 -3.8366127c0.22288704 -1.2815361 0.3343296 -2.1880684 0.3343296 -2.7196007c0 -0.22912979 -0.07355118 -0.4662552 -0.22065735 -0.7113724c-0.14710426 -0.24644852 -0.28585052 -0.36967087 -0.4162407 -0.36967087z"
              fill-rule="evenodd"/>
        <path fill="#674ea7"
              d="m29.702946 51.739532c0.26746368 0 0.40119553 0.3396988 0.40119553 1.0191002c0 0.4835739 -0.1487751 0.9691467 -0.44632912 1.4567146c-0.29755402 0.48623657 -0.6569576 0.8765602 -1.0782127 1.1709671c-0.4212551 0.2944069 -0.8135357 0.44160843 -1.1768398 0.44160843l-0.10197067 0l0.23570251 -1.1290016c0.26746368 -0.8752289 0.62854004 -1.587265 1.0832272 -2.136116c0.45580292 -0.5488472 0.8168793 -0.8232727 1.0832272 -0.8232727zm-5.144045 -0.26976395c0.14376259 0.1145668 0.25297737 0.29707336 0.32764244 0.5475197c0.075782776 0.24911118 0.11367226 0.5128784 0.11367226 0.7913017c0 0.6141243 -0.17329407 1.26688 -0.5198822 1.958271c-0.34547424 0.691391 -0.76449966 1.094368 -1.2570782 1.208931c-0.25966454 -0.1558609 -0.38949394 -0.5488472 -0.38949394 -1.1789589c0 -0.6301117 0.16939354 -1.3028488 0.5081806 -2.018219c0.33878708 -0.7167015 0.7444401 -1.1529808 1.216959 -1.3088455zm-0.12871742 -0.74933624c-0.40788078 0 -0.8051758 0.2071495 -1.191885 0.62145233c-0.3867073 0.41296768 -0.6981907 0.93850327 -0.93445015 1.5766068c-0.23625946 0.6381035 -0.3543892 1.2542267 -0.3543892 1.8483696c0 0.59280777 0.116456985 1.0817108 0.34937477 1.4667053c0.23291588 0.3849945 0.52378273 0.57749176 0.87259865 0.57749176c0.47251892 0 0.9194069 -0.20248795 1.340662 -0.60746384c0.4212551 -0.4049759 0.7516842 -0.9165268 0.99128723 -1.5346489c0.23960304 -0.6181183 0.3594036 -1.223587 0.3594036 -1.8163948c0 -0.5941429 -0.13707352 -1.0976982 -0.41122437 -1.5106659c-0.27303505 -0.41430283 -0.6134949 -0.62145233 -1.0213776 -0.62145233zm2.9525166 -0.085926056c-0.15044975 0 -0.22567368 0.123226166 -0.22567368 0.36967468c0 1.1043587 -0.32875633 3.2484665 -0.9862709 6.4323235c-0.21842957 1.0564003 -0.32764435 1.6538734 -0.32764435 1.7924194c0 0.13987732 0.052936554 0.29773712 0.15880775 0.4735794c0.1058712 0.1758461 0.20672607 0.26376724 0.30256844 0.26376724c0.095840454 0 0.20561218 -0.2784195 0.32931328 -0.8352623c0.061294556 -0.2704277 0.11590195 -0.52420425 0.16382217 -0.76132584c0.047920227 -0.2371254 0.1058712 -0.53619385 0.17385101 -0.89720917c0.06909561 -0.359684 0.11701584 -0.60879517 0.14376259 -0.74734116c0.123701096 0.041297913 0.25408936 0.06194687 0.39116478 0.06194687c0.34881783 0 0.7305107 -0.124557495 1.1450787 -0.3736725c0.41456985 -0.25044632 0.79291916 -0.56350327 1.1350498 -0.93917084c0.34213066 -0.3769989 0.62965393 -0.80462265 0.8625698 -1.2828674c0.23291588 -0.4795761 0.34937477 -0.95848846 0.34937477 -1.4367332c0 -0.4795761 -0.10810089 -0.94449997 -0.32430077 -1.3947678c-0.21508408 -0.4502678 -0.46973228 -0.6754036 -0.7639427 -0.6754036c-0.6307678 0 -1.2509499 0.47491455 -1.8605442 1.4247437c0.027860641 -0.15586472 0.041791916 -0.29907227 0.041791916 -0.42962265c0 -0.2624359 -0.08748245 -0.50222397 -0.26244926 -0.71936417c-0.17385101 -0.21714401 -0.32262802 -0.3257141 -0.44632912 -0.3257141z"
              fill-rule="evenodd"/>
        <path fill="#674ea7"
              d="m33.263275 48.18067c-0.085811615 0 -0.14432144 0.02664566 -0.17552567 0.07992935c-0.030086517 0.051956177 -0.045131683 0.14786911 -0.045131683 0.28774643c0 0.5235405 -0.2212143 1.8170624 -0.6636467 3.880577c-0.4413147 2.0621796 -0.66197205 3.1918488 -0.66197205 3.3890076c0 0.19582748 0.061294556 0.40031433 0.18388176 0.61346054c0.123701096 0.21181107 0.22678566 0.3177185 0.3092556 0.3177185c0.027858734 0 0.06909561 -0.06927109 0.123703 -0.20781708c0.026744843 -0.07460022 0.051818848 -0.15253067 0.075222015 -0.23379135c0.02451706 -0.082595825 0.054050446 -0.19116592 0.088596344 -0.3257141c0.034549713 -0.13454819 0.06686783 -0.25910568 0.09695816 -0.37366867c0.031204224 -0.1145668 0.06742096 -0.25977325 0.10865402 -0.43561554c0.041236877 -0.1758461 0.07689667 -0.32904434 0.106987 -0.45959473c0.031204224 -0.13188553 0.06909561 -0.29773712 0.113674164 -0.4975624c0.044574738 -0.20115662 0.13707352 -0.60679626 0.27749252 -1.2169266c0.140419 -0.6101265 0.26857758 -1.3448143 0.38447952 -2.2040558c0.41791153 1.5879326 0.75001144 2.5950432 0.99629974 3.0213356c0.16493607 0.25310898 0.34157562 0.37966537 0.52991486 0.37966537c0.18833923 0 0.42794037 -0.18383789 0.7188072 -0.5515137c0.29086685 -0.3690071 1.0659523 -1.4946823 2.3252602 -3.3770218l0 0c-0.27303314 0.8925476 -0.52768326 1.9322968 -0.7639427 3.1192474c-0.23625946 1.1869545 -0.3543892 1.9462852 -0.3543892 2.2779922c0 0.33037567 0.044021606 0.5941429 0.132061 0.7913017c0.08915329 0.19582748 0.17998123 0.29373932 0.27248 0.29373932c0.092494965 0 0.19001007 -0.2371254 0.2925377 -0.7113724c0.055721283 -0.24644852 0.10921478 -0.49822617 0.16047668 -0.75533295c0.051265717 -0.2584381 0.117572784 -0.5901451 0.19892883 -0.995121c0.082466125 -0.4049759 0.15434647 -0.7486725 0.21564102 -1.0310898c0.062408447 -0.2824173 0.15156174 -0.66075134 0.26746368 -1.1349983c0.11701584 -0.47558212 0.20115662 -0.8252716 0.25241852 -1.0490761c0.051265717 -0.2251358 0.10921478 -0.49089813 0.17385101 -0.7972946c0.06575394 -0.30773163 0.11199951 -0.5555115 0.13874817 -0.74334717c0.027858734 -0.18916321 0.04179001 -0.35701752 0.04179001 -0.5035553c0 -0.14786911 -0.068538666 -0.30373 -0.20561218 -0.46758652c-0.13707352 -0.1638565 -0.26746368 -0.24578094 -0.3911667 -0.24578094c-0.1225853 0 -0.32429886 0.18849945 -0.6051369 0.56549835c-0.2808342 0.3756714 -0.71212006 1.011776 -1.2938538 1.9083176c-0.5817337 0.8965416 -1.0648384 1.6145744 -1.4493179 2.1540985c-0.3008957 -0.76865387 -0.5678024 -1.5273209 -0.8007202 -2.2759933c-0.23291779 -0.7486725 -0.3627472 -1.2708778 -0.38949585 -1.566616c-0.0144844055 -0.1718483 -0.12760162 -0.36767578 -0.33934402 -0.58748245c-0.2117424 -0.221138 -0.3605156 -0.331707 -0.4463272 -0.331707z"
              fill-rule="evenodd"/>
        <path fill="#674ea7"
              d="m42.22433 51.46977c0.14376068 0.1145668 0.25297546 0.29707336 0.32764435 0.5475197c0.07577896 0.24911118 0.11367035 0.5128784 0.11367035 0.7913017c0 0.6141243 -0.17329407 1.26688 -0.5198822 1.958271c-0.34547424 0.691391 -0.76449966 1.094368 -1.2570801 1.208931c-0.25966263 -0.1558609 -0.38949203 -0.5488472 -0.38949203 -1.1789589c0 -0.6301117 0.16939163 -1.3028488 0.5081787 -2.018219c0.33878708 -0.7167015 0.744442 -1.1529808 1.2169609 -1.3088455zm-0.12871552 -0.74933624c-0.4078827 0 -0.8051796 0.2071495 -1.1918869 0.62145233c-0.3867073 0.41296768 -0.6981926 0.93850327 -0.93445206 1.5766068c-0.23625946 0.6381035 -0.3543892 1.2542267 -0.3543892 1.8483696c0 0.59280777 0.11645889 1.0817108 0.34937668 1.4667053c0.23291779 0.3849945 0.5237808 0.57749176 0.87260056 0.57749176c0.47251892 0 0.9194069 -0.20248795 1.3406601 -0.60746384c0.42125702 -0.4049759 0.7516861 -0.9165268 0.99128723 -1.5346489c0.23960495 -0.6181183 0.35940552 -1.223587 0.35940552 -1.8163948c0 -0.5941429 -0.13707733 -1.0976982 -0.41122437 -1.5106659c-0.27303696 -0.41430283 -0.6134949 -0.62145233 -1.0213776 -0.62145233z"
              fill-rule="evenodd"/>
        <path fill="#674ea7"
              d="m47.102585 50.720432c-0.43128586 0 -0.87482834 0.23778915 -1.3306313 0.7133713c-0.45468903 0.47424698 -0.8257942 1.0470734 -1.1133194 1.718483c-0.28752136 0.6714058 -0.43128204 1.262886 -0.43128204 1.7744331c0 0.5115471 0.17440796 0.9538269 0.5232239 1.326828c0.34881592 0.37167358 0.7232666 0.5575104 1.1233482 0.5575104c0.40119553 0 0.8397217 -0.15719604 1.3155861 -0.47158432c0.4758644 -0.31572342 0.7137947 -0.592144 0.7137947 -0.8292694c0 -0.1558609 -0.06519699 -0.23379517 -0.19558334 -0.23379517c-0.074668884 0 -0.18053818 0.043296814 -0.3176155 0.12988663c-0.13707352 0.085258484 -0.33042908 0.17118073 -0.58005905 0.25777435c-0.24963379 0.08525467 -0.52378464 0.12788773 -0.82245255 0.12788773c-0.29755402 0 -0.51319504 -0.07326889 -0.6469269 -0.21980667c-0.13373184 -0.14786911 -0.20059586 -0.34902573 -0.20059586 -0.60346985c0 -0.5808182 0.2462883 -1.259552 0.7388649 -2.0362015c0.4936943 -0.7779808 0.9255371 -1.1669693 1.2955284 -1.1669693c0.13039017 0 0.27749252 0.07393265 0.4413147 0.22180176c0.16493607 0.14653778 0.27972412 0.21980667 0.34436035 0.21980667c0.06463623 0 0.11423111 -0.022647858 0.14877701 -0.06793976c0.0345459 -0.0452919 0.051818848 -0.10057831 0.051818848 -0.1658516c0 -0.2291336 -0.10642624 -0.49489975 -0.31928253 -0.79729843c-0.2117424 -0.30373 -0.4580307 -0.45559692 -0.7388687 -0.45559692z"
              fill-rule="evenodd"/>
        <path fill="#674ea7"
              d="m50.347385 47.283466c-0.10252762 0 -0.16939545 0.024642944 -0.20059967 0.07393265c-0.030090332 0.049289703 -0.045135498 0.13920975 -0.045135498 0.26976395c0 1.0230942 -0.111442566 2.185402 -0.3343277 3.4869194c-0.22177505 1.3015213 -0.44410324 2.417202 -0.6669884 3.3470497c-0.22288513 0.9285126 -0.3343277 1.456047 -0.3343277 1.5826035c0 0.12655258 0.06129074 0.2864113 0.18387985 0.4795761c0.123703 0.19182968 0.2368164 0.28774643 0.33934402 0.28774643c0.10364151 0 0.25966263 -0.14520645 0.46806335 -0.43561554c0.20839691 -0.2904129 0.54551315 -0.81261826 1.0113449 -1.5666199c0.021175385 0.07460022 0.048477173 0.15253448 0.08190918 0.23379517c0.089157104 0.4502678 0.32040024 0.85791016 0.69373703 1.2229195c0.37333298 0.36367798 0.6948471 0.5455208 0.9645386 0.5455208c0.27080917 0 0.40621185 -0.10257721 0.40621185 -0.30773163c0 -0.08126068 -0.07355499 -0.18317032 -0.22065735 -0.3057289c-0.14710617 -0.12388992 -0.3081398 -0.24911118 -0.48310852 -0.37566757c-0.17385101 -0.1265564 -0.3343277 -0.31438828 -0.48143387 -0.56350327c-0.14710236 -0.25044632 -0.22065735 -0.5228729 -0.22065735 -0.8172798c0 -0.2944069 0.09416962 -0.61945343 0.28250885 -0.9751396c0.18833923 -0.35701752 0.39506912 -0.66607666 0.62018204 -0.92718124c0.60959244 -0.6967163 0.91439056 -1.0817108 0.91439056 -1.1549797c0 -0.13055038 -0.0618515 -0.27375793 -0.18555069 -0.42962265c-0.12258911 -0.1558609 -0.25074768 -0.23379135 -0.38447952 -0.23379135c-0.13373184 0 -0.48310852 0.40763855 -1.0481262 1.2229195c-0.5639 0.8139496 -1.2331161 1.879673 -2.0076485 3.197178c0.34213257 -1.1776276 0.6363411 -2.421196 0.8826294 -3.7307053c0.247406 -1.3108444 0.371109 -2.3299446 0.371109 -3.0573044c0 -0.22912979 -0.07522583 -0.4642563 -0.22567368 -0.7053757c-0.15044785 -0.24245453 -0.27749252 -0.36367798 -0.38113403 -0.36367798z"
              fill-rule="evenodd"/>
    </g>
</svg>